<svg width="246" height="60" viewBox="0 0 246 60" fill="none" xmlns="http://www.w3.org/2000/svg">
<path fill-rule="evenodd" clip-rule="evenodd" d="M26 0C16.26 8.38 10.16 10 0 10V32.3C0 45.76 9.26 49.28 26 60C42.74 49.28 52 45.76 52 32.3V10C41.84 10 35.74 8.38 26 0Z" fill="url(#paint0_linear_3_30886)"/>
<path fill-rule="evenodd" clip-rule="evenodd" d="M26 0C16.26 8.38 10.16 10 0 10V32.3C0 45.76 9.26 49.28 26 60C42.74 49.28 52 45.76 52 32.3V10C41.84 10 35.74 8.38 26 0Z" fill="url(#paint1_linear_3_30886)"/>
<path d="M25.9598 27.1001L23.4798 34.0801C21.8798 34.5001 20.2998 34.5001 18.8398 34.0001C16.7998 33.3201 15.1998 31.7801 14.3198 29.6801C12.5198 25.4401 14.0598 21.2001 18.4798 19.1401C19.3798 18.7201 20.7998 18.0801 22.7198 17.2801C25.6398 16.0601 27.0598 15.8601 26.9598 16.7201C25.6598 20.2801 25.0198 22.0601 24.9998 22.0601C23.0998 22.9601 21.6798 23.6201 20.7798 24.0601C19.7998 24.5201 19.2598 25.0601 19.0598 25.6401C18.8798 26.1601 18.9198 26.8401 19.2398 27.6201C19.5198 28.3001 19.9398 28.7001 20.4798 28.8801C21.0998 29.0801 21.9198 29.0001 22.8798 28.5601C23.6398 28.2001 24.9198 27.6001 25.9598 27.1001ZM27.7998 26.2601C31.9398 24.7201 35.7998 26.3001 37.7798 30.1601C38.8198 32.1801 38.9598 34.4001 38.1798 36.4001C37.4198 38.3401 35.8398 39.9001 33.6998 40.9001L29.4798 42.8601C28.4598 43.2601 27.4198 43.6601 26.3998 44.0601C26.2598 44.1201 26.0998 44.1201 25.9598 44.0801C25.5998 43.9601 25.4198 43.6001 25.5198 43.2401C26.0798 41.4801 26.6398 39.7201 27.1998 37.9601L31.4198 36.0001C32.3798 35.5601 32.9598 34.9801 33.1998 34.3801C33.3998 33.8601 33.3598 33.2801 33.0198 32.6201C32.6398 31.8601 32.1598 31.4001 31.6198 31.2201C31.0398 31.0001 30.2798 31.0601 29.2998 31.5201C28.4198 31.9201 27.0798 32.5401 25.2598 33.3801L27.7998 26.2601Z" fill="white"/>
<path d="M74.2246 33.0352C74.2246 33.8815 74.0195 34.6172 73.6094 35.2422C73.1992 35.8672 72.6003 36.349 71.8125 36.6875C71.0312 37.026 70.0807 37.1953 68.9609 37.1953C68.4661 37.1953 67.9811 37.1628 67.5059 37.0977C67.0371 37.0326 66.5846 36.9382 66.1484 36.8145C65.7188 36.6842 65.3086 36.5247 64.918 36.3359V33.5234C65.5951 33.8229 66.2982 34.0931 67.0273 34.334C67.7565 34.5749 68.4792 34.6953 69.1953 34.6953C69.6901 34.6953 70.0872 34.6302 70.3867 34.5C70.6927 34.3698 70.9141 34.1908 71.0508 33.9629C71.1875 33.735 71.2559 33.4746 71.2559 33.1816C71.2559 32.8236 71.1354 32.5176 70.8945 32.2637C70.6536 32.0098 70.3216 31.7721 69.8984 31.5508C69.4818 31.3294 69.0098 31.0918 68.4824 30.8379C68.1504 30.6816 67.7891 30.4928 67.3984 30.2715C67.0078 30.0436 66.6367 29.7669 66.2852 29.4414C65.9336 29.1159 65.6439 28.722 65.416 28.2598C65.1947 27.791 65.084 27.2311 65.084 26.5801C65.084 25.7272 65.2793 24.998 65.6699 24.3926C66.0605 23.7871 66.6172 23.3249 67.3398 23.0059C68.069 22.6803 68.9284 22.5176 69.918 22.5176C70.6602 22.5176 71.3665 22.6055 72.0371 22.7812C72.7142 22.9505 73.4206 23.1979 74.1562 23.5234L73.1797 25.877C72.5221 25.61 71.9329 25.4049 71.4121 25.2617C70.8913 25.112 70.3607 25.0371 69.8203 25.0371C69.4427 25.0371 69.1204 25.099 68.8535 25.2227C68.5866 25.3398 68.3848 25.5091 68.248 25.7305C68.1113 25.9453 68.043 26.196 68.043 26.4824C68.043 26.821 68.1406 27.1074 68.3359 27.3418C68.5378 27.5697 68.8372 27.791 69.2344 28.0059C69.638 28.2207 70.1393 28.4714 70.7383 28.7578C71.4674 29.1029 72.0892 29.4642 72.6035 29.8418C73.1243 30.2129 73.5247 30.6523 73.8047 31.1602C74.0846 31.6615 74.2246 32.2865 74.2246 33.0352ZM94.3516 22.7227L90.7188 37H87.2715L85.3379 29.5C85.2988 29.3568 85.2467 29.1387 85.1816 28.8457C85.1165 28.5527 85.0482 28.2337 84.9766 27.8887C84.9049 27.5371 84.8398 27.2083 84.7812 26.9023C84.7292 26.5898 84.6934 26.3424 84.6738 26.1602C84.6543 26.3424 84.6152 26.5866 84.5566 26.8926C84.5046 27.1986 84.4427 27.5241 84.3711 27.8691C84.306 28.2142 84.2409 28.5365 84.1758 28.8359C84.1107 29.1354 84.0586 29.3633 84.0195 29.5195L82.0957 37H78.6582L75.0156 22.7227H77.9941L79.8203 30.5156C79.8724 30.75 79.931 31.0299 79.9961 31.3555C80.0677 31.681 80.1361 32.0228 80.2012 32.3809C80.2728 32.7324 80.3346 33.0742 80.3867 33.4062C80.4453 33.7318 80.4876 34.015 80.5137 34.2559C80.5462 34.0085 80.5885 33.722 80.6406 33.3965C80.6927 33.0645 80.748 32.7292 80.8066 32.3906C80.8717 32.0456 80.9368 31.7266 81.002 31.4336C81.0671 31.1406 81.1257 30.903 81.1777 30.7207L83.2578 22.7227H86.1191L88.1992 30.7207C88.2448 30.8965 88.2969 31.1341 88.3555 31.4336C88.4206 31.7266 88.4857 32.0456 88.5508 32.3906C88.6159 32.7357 88.6745 33.0742 88.7266 33.4062C88.7852 33.7318 88.8275 34.015 88.8535 34.2559C88.8991 33.9303 88.9609 33.5365 89.0391 33.0742C89.1237 32.6055 89.2116 32.14 89.3027 31.6777C89.4004 31.2155 89.485 30.8281 89.5566 30.5156L91.373 22.7227H94.3516ZM96.1484 37V22.7227H99.1758V37H96.1484ZM108.277 37H105.25V25.2422H101.373V22.7227H112.154V25.2422H108.277V37ZM120.416 25.0371C119.837 25.0371 119.322 25.151 118.873 25.3789C118.43 25.6003 118.056 25.9225 117.75 26.3457C117.451 26.7689 117.223 27.2799 117.066 27.8789C116.91 28.4779 116.832 29.1517 116.832 29.9004C116.832 30.9095 116.956 31.7721 117.203 32.4883C117.457 33.1979 117.848 33.7415 118.375 34.1191C118.902 34.4902 119.583 34.6758 120.416 34.6758C120.995 34.6758 121.575 34.6107 122.154 34.4805C122.74 34.3503 123.375 34.1647 124.059 33.9238V36.4629C123.427 36.7233 122.805 36.9089 122.193 37.0195C121.581 37.1367 120.895 37.1953 120.133 37.1953C118.661 37.1953 117.451 36.8926 116.5 36.2871C115.556 35.6751 114.856 34.8223 114.4 33.7285C113.945 32.6283 113.717 31.3457 113.717 29.8809C113.717 28.8001 113.863 27.8105 114.156 26.9121C114.449 26.0137 114.879 25.2357 115.445 24.5781C116.012 23.9206 116.712 23.4128 117.545 23.0547C118.378 22.6966 119.335 22.5176 120.416 22.5176C121.126 22.5176 121.835 22.6087 122.545 22.791C123.261 22.9668 123.945 23.2109 124.596 23.5234L123.619 25.9844C123.085 25.7305 122.548 25.5091 122.008 25.3203C121.467 25.1315 120.937 25.0371 120.416 25.0371ZM138.805 37H135.787V30.8379H130.133V37H127.105V22.7227H130.133V28.3184H135.787V22.7227H138.805V37ZM150.641 37H142.418V22.7227H150.641V25.2031H145.445V28.3379H150.279V30.8184H145.445V34.5H150.641V37ZM157.789 22.7227C159.085 22.7227 160.152 22.8789 160.992 23.1914C161.839 23.5039 162.467 23.9759 162.877 24.6074C163.287 25.2389 163.492 26.0365 163.492 27C163.492 27.651 163.368 28.2207 163.121 28.709C162.874 29.1973 162.548 29.6107 162.145 29.9492C161.741 30.2878 161.305 30.5645 160.836 30.7793L165.035 37H161.676L158.268 31.5215H156.656V37H153.629V22.7227H157.789ZM157.574 25.2031H156.656V29.0605H157.633C158.635 29.0605 159.352 28.8945 159.781 28.5625C160.217 28.224 160.436 27.7292 160.436 27.0781C160.436 26.401 160.201 25.9193 159.732 25.6328C159.27 25.3464 158.551 25.2031 157.574 25.2031ZM170.992 22.7227C172.288 22.7227 173.355 22.8789 174.195 23.1914C175.042 23.5039 175.67 23.9759 176.08 24.6074C176.49 25.2389 176.695 26.0365 176.695 27C176.695 27.651 176.572 28.2207 176.324 28.709C176.077 29.1973 175.751 29.6107 175.348 29.9492C174.944 30.2878 174.508 30.5645 174.039 30.7793L178.238 37H174.879L171.471 31.5215H169.859V37H166.832V22.7227H170.992ZM170.777 25.2031H169.859V29.0605H170.836C171.839 29.0605 172.555 28.8945 172.984 28.5625C173.421 28.224 173.639 27.7292 173.639 27.0781C173.639 26.401 173.404 25.9193 172.936 25.6328C172.473 25.3464 171.754 25.2031 170.777 25.2031ZM184.479 28.6016L187.457 22.7227H190.719L185.982 31.4434V37H182.975V31.541L178.238 22.7227H181.52L184.479 28.6016Z" fill="white"/>
<path d="M206.451 37L205.416 33.6016H200.211L199.176 37H195.914L200.953 22.6641H204.654L209.713 37H206.451ZM204.693 31.0625L203.658 27.7422C203.593 27.5208 203.505 27.2376 203.395 26.8926C203.29 26.541 203.183 26.1862 203.072 25.8281C202.968 25.4635 202.883 25.1478 202.818 24.8809C202.753 25.1478 202.662 25.4798 202.545 25.877C202.434 26.2676 202.327 26.6387 202.223 26.9902C202.118 27.3418 202.044 27.5924 201.998 27.7422L200.973 31.0625H204.693ZM216.08 22.7227C217.923 22.7227 219.267 23.1198 220.113 23.9141C220.96 24.7018 221.383 25.7891 221.383 27.1758C221.383 27.8008 221.288 28.3997 221.1 28.9727C220.911 29.5391 220.602 30.0436 220.172 30.4863C219.749 30.929 219.182 31.2806 218.473 31.541C217.763 31.7949 216.887 31.9219 215.846 31.9219H214.547V37H211.52V22.7227H216.08ZM215.924 25.2031H214.547V29.4414H215.543C216.109 29.4414 216.601 29.3665 217.018 29.2168C217.434 29.0671 217.757 28.8327 217.984 28.5137C218.212 28.1947 218.326 27.7845 218.326 27.2832C218.326 26.5801 218.131 26.0592 217.74 25.7207C217.35 25.3757 216.744 25.2031 215.924 25.2031ZM228.639 22.7227C230.481 22.7227 231.826 23.1198 232.672 23.9141C233.518 24.7018 233.941 25.7891 233.941 27.1758C233.941 27.8008 233.847 28.3997 233.658 28.9727C233.469 29.5391 233.16 30.0436 232.73 30.4863C232.307 30.929 231.741 31.2806 231.031 31.541C230.322 31.7949 229.446 31.9219 228.404 31.9219H227.105V37H224.078V22.7227H228.639ZM228.482 25.2031H227.105V29.4414H228.102C228.668 29.4414 229.16 29.3665 229.576 29.2168C229.993 29.0671 230.315 28.8327 230.543 28.5137C230.771 28.1947 230.885 27.7845 230.885 27.2832C230.885 26.5801 230.689 26.0592 230.299 25.7207C229.908 25.3757 229.303 25.2031 228.482 25.2031ZM245.064 33.0352C245.064 33.8815 244.859 34.6172 244.449 35.2422C244.039 35.8672 243.44 36.349 242.652 36.6875C241.871 37.026 240.921 37.1953 239.801 37.1953C239.306 37.1953 238.821 37.1628 238.346 37.0977C237.877 37.0326 237.424 36.9382 236.988 36.8145C236.559 36.6842 236.148 36.5247 235.758 36.3359V33.5234C236.435 33.8229 237.138 34.0931 237.867 34.334C238.596 34.5749 239.319 34.6953 240.035 34.6953C240.53 34.6953 240.927 34.6302 241.227 34.5C241.533 34.3698 241.754 34.1908 241.891 33.9629C242.027 33.735 242.096 33.4746 242.096 33.1816C242.096 32.8236 241.975 32.5176 241.734 32.2637C241.493 32.0098 241.161 31.7721 240.738 31.5508C240.322 31.3294 239.85 31.0918 239.322 30.8379C238.99 30.6816 238.629 30.4928 238.238 30.2715C237.848 30.0436 237.477 29.7669 237.125 29.4414C236.773 29.1159 236.484 28.722 236.256 28.2598C236.035 27.791 235.924 27.2311 235.924 26.5801C235.924 25.7272 236.119 24.998 236.51 24.3926C236.9 23.7871 237.457 23.3249 238.18 23.0059C238.909 22.6803 239.768 22.5176 240.758 22.5176C241.5 22.5176 242.206 22.6055 242.877 22.7812C243.554 22.9505 244.26 23.1979 244.996 23.5234L244.02 25.877C243.362 25.61 242.773 25.4049 242.252 25.2617C241.731 25.112 241.201 25.0371 240.66 25.0371C240.283 25.0371 239.96 25.099 239.693 25.2227C239.426 25.3398 239.225 25.5091 239.088 25.7305C238.951 25.9453 238.883 26.196 238.883 26.4824C238.883 26.821 238.98 27.1074 239.176 27.3418C239.378 27.5697 239.677 27.791 240.074 28.0059C240.478 28.2207 240.979 28.4714 241.578 28.7578C242.307 29.1029 242.929 29.4642 243.443 29.8418C243.964 30.2129 244.365 30.6523 244.645 31.1602C244.924 31.6615 245.064 32.2865 245.064 33.0352Z" fill="#7000FF"/>
<defs>
<linearGradient id="paint0_linear_3_30886" x1="6.53892" y1="51.8477" x2="55.2301" y2="12.131" gradientUnits="userSpaceOnUse">
<stop stop-color="#8309FD"/>
<stop offset="1" stop-color="#C7F1FE"/>
</linearGradient>
<linearGradient id="paint1_linear_3_30886" x1="26" y1="0" x2="26" y2="60" gradientUnits="userSpaceOnUse">
<stop stop-color="#0094FF"/>
<stop offset="1" stop-color="#8B24FD"/>
</linearGradient>
</defs>
</svg>
